<svg width="135" height="37" viewBox="0 0 135 37" fill="none" xmlns="http://www.w3.org/2000/svg">
<path d="M18.5015 0C14.8423 0 11.2652 1.08009 8.22264 3.10371C5.18011 5.12731 2.80868 8.00353 1.40835 11.3687C0.00801569 14.7338 -0.358374 18.4367 0.355509 22.0091C1.0694 25.5816 2.83151 28.863 5.41897 31.4384C8.00645 34.014 11.3032 35.768 14.8921 36.4788C18.481 37.1893 22.201 36.8246 25.5818 35.4309C28.9626 34.0368 31.8518 31.6763 33.885 28.6478C35.918 25.6193 37.003 22.0587 37.003 18.4163C37.003 13.532 35.0538 8.84771 31.5841 5.39401C28.1143 1.94028 23.4085 0 18.5015 0ZM29.8666 21.1077C29.8666 21.476 28.1962 21.5286 28.1962 21.897C28.1962 22.2653 29.8483 22.7651 29.8483 23.273C29.8483 23.8938 26.4439 23.9858 26.4439 24.6068C26.4439 25.2699 29.0261 25.0645 29.0261 25.7828C29.0261 26.63 22.5402 26.2353 22.5402 27.1167C22.5402 27.4533 23.3702 27.5929 24.4089 27.7034C24.9798 27.7664 24.8554 28.0453 24.5305 28.2296C22.7147 29.3323 20.6287 29.9159 18.5015 29.9159C16.3744 29.9159 14.2884 29.3323 12.4726 28.2296C12.1502 28.0323 12.0233 27.7534 12.5942 27.7034C13.633 27.5929 14.4656 27.4403 14.4656 27.1167C14.4656 26.2353 7.97679 26.63 7.97679 25.7828C7.97679 25.0645 10.5617 25.2566 10.5617 24.6068C10.5617 23.9858 7.15484 23.8938 7.15484 23.273C7.15484 22.7651 8.80942 22.2732 8.80942 21.897C8.80942 21.5207 7.13633 21.4786 7.13633 21.1077C7.13633 20.7367 8.35745 20.4973 8.35745 20.2342C8.35745 19.737 6.93808 20.642 6.93808 18.4163C6.93808 15.3636 8.15642 12.4359 10.325 10.2774C12.4936 8.11878 15.4347 6.9061 18.5015 6.9061C21.5683 6.9061 24.5096 8.11878 26.6782 10.2774C28.8467 12.4359 30.0649 15.3636 30.0649 18.4163C30.0649 20.642 28.6457 19.7317 28.6457 20.2342C28.6457 20.4973 29.8666 20.7104 29.8666 21.1077Z" fill="url(#paint0_linear_135_173)"/>
<path d="M43.552 26L49.696 9.19997H53.152L59.296 26H56.032L54.688 22.112H48.136L46.768 26H43.552ZM48.976 19.712H53.848L51.4 12.728L48.976 19.712Z" fill="#038767"/>
<path d="M66.4281 22.448C65.8521 22.448 65.3161 22.384 64.8201 22.256L63.9321 23.144C64.2041 23.288 64.5721 23.408 65.0361 23.504C65.5001 23.6 66.2521 23.696 67.2921 23.792C68.8761 23.936 70.0281 24.312 70.7481 24.92C71.4681 25.528 71.8281 26.368 71.8281 27.44C71.8281 28.144 71.6361 28.808 71.2521 29.432C70.8681 30.072 70.2761 30.584 69.4761 30.968C68.6761 31.368 67.6521 31.568 66.4041 31.568C64.7081 31.568 63.3401 31.248 62.3001 30.608C61.2601 29.984 60.7401 29.04 60.7401 27.776C60.7401 26.704 61.2601 25.776 62.3001 24.992C61.9801 24.848 61.7001 24.696 61.4601 24.536C61.2361 24.376 61.0361 24.208 60.8601 24.032V23.48L62.9481 21.272C62.0201 20.456 61.5561 19.408 61.5561 18.128C61.5561 17.328 61.7481 16.6 62.1321 15.944C62.5321 15.288 63.0921 14.768 63.8121 14.384C64.5321 14 65.4041 13.808 66.4281 13.808C67.1001 13.808 67.7241 13.904 68.3001 14.096H72.8121V15.968L70.7721 16.112C71.0921 16.72 71.2521 17.392 71.2521 18.128C71.2521 18.928 71.0601 19.656 70.6761 20.312C70.2921 20.968 69.7321 21.488 68.9961 21.872C68.2761 22.256 67.4201 22.448 66.4281 22.448ZM66.4281 20.096C67.0521 20.096 67.5641 19.928 67.9641 19.592C68.3801 19.256 68.5881 18.776 68.5881 18.152C68.5881 17.528 68.3801 17.048 67.9641 16.712C67.5641 16.376 67.0521 16.208 66.4281 16.208C65.7721 16.208 65.2441 16.376 64.8441 16.712C64.4441 17.048 64.2441 17.528 64.2441 18.152C64.2441 18.776 64.4441 19.256 64.8441 19.592C65.2441 19.928 65.7721 20.096 66.4281 20.096ZM63.5481 27.464C63.5481 28.056 63.8201 28.496 64.3641 28.784C64.9241 29.088 65.6041 29.24 66.4041 29.24C67.1721 29.24 67.7961 29.08 68.2761 28.76C68.7561 28.456 68.9961 28.04 68.9961 27.512C68.9961 27.08 68.8361 26.72 68.5161 26.432C68.2121 26.144 67.5961 25.968 66.6681 25.904C66.0121 25.856 65.4041 25.784 64.8441 25.688C64.3801 25.944 64.0441 26.224 63.8361 26.528C63.6441 26.832 63.5481 27.144 63.5481 27.464Z" fill="#038767"/>
<path d="M75.0522 26V14.096H77.7882L78.0762 16.328C78.5082 15.56 79.0922 14.952 79.8282 14.504C80.5802 14.04 81.4602 13.808 82.4682 13.808V17.048H81.6042C80.9322 17.048 80.3322 17.152 79.8042 17.36C79.2762 17.568 78.8602 17.928 78.5562 18.44C78.2682 18.952 78.1242 19.664 78.1242 20.576V26H75.0522Z" fill="#038767"/>
<path d="M86.2238 12.248C85.6638 12.248 85.1998 12.08 84.8318 11.744C84.4798 11.408 84.3038 10.984 84.3038 10.472C84.3038 9.95997 84.4798 9.54397 84.8318 9.22397C85.1998 8.88797 85.6638 8.71997 86.2238 8.71997C86.7838 8.71997 87.2398 8.88797 87.5918 9.22397C87.9598 9.54397 88.1438 9.95997 88.1438 10.472C88.1438 10.984 87.9598 11.408 87.5918 11.744C87.2398 12.08 86.7838 12.248 86.2238 12.248ZM84.6878 26V14.096H87.7598V26H84.6878Z" fill="#038767"/>
<path d="M96.7743 26.288C95.5423 26.288 94.4543 26.08 93.5103 25.664C92.5663 25.232 91.8223 24.624 91.2783 23.84C90.7343 23.04 90.4543 22.072 90.4383 20.936H93.6783C93.7103 21.72 93.9902 22.384 94.5182 22.928C95.0622 23.456 95.8063 23.72 96.7503 23.72C97.5663 23.72 98.2143 23.528 98.6943 23.144C99.1743 22.744 99.4143 22.216 99.4143 21.56C99.4143 20.872 99.1983 20.336 98.7663 19.952C98.3503 19.568 97.7903 19.256 97.0863 19.016C96.3823 18.776 95.6303 18.52 94.8303 18.248C93.5343 17.8 92.5423 17.224 91.8543 16.52C91.1823 15.816 90.8463 14.88 90.8463 13.712C90.8303 12.72 91.0623 11.872 91.5423 11.168C92.0383 10.448 92.7103 9.89597 93.5583 9.51197C94.4063 9.11197 95.3823 8.91197 96.4863 8.91197C97.6063 8.91197 98.5903 9.11197 99.4383 9.51197C100.302 9.91197 100.974 10.472 101.454 11.192C101.95 11.912 102.214 12.768 102.246 13.76H98.9583C98.9423 13.168 98.7103 12.648 98.2623 12.2C97.8303 11.736 97.2223 11.504 96.4383 11.504C95.7663 11.488 95.1983 11.656 94.7343 12.008C94.2863 12.344 94.0622 12.84 94.0622 13.496C94.0622 14.056 94.2383 14.504 94.5903 14.84C94.9423 15.16 95.4223 15.432 96.0303 15.656C96.6383 15.88 97.3343 16.12 98.1183 16.376C98.9503 16.664 99.7103 17 100.398 17.384C101.086 17.768 101.638 18.28 102.054 18.92C102.47 19.544 102.678 20.352 102.678 21.344C102.678 22.224 102.454 23.04 102.006 23.792C101.558 24.544 100.894 25.152 100.014 25.616C99.1343 26.064 98.0543 26.288 96.7743 26.288Z" fill="#1E1E1E"/>
<path d="M107.615 26L104.135 14.096H107.183L109.247 22.664L111.647 14.096H115.055L117.455 22.664L119.543 14.096H122.591L119.087 26H115.895L113.351 17.096L110.807 26H107.615Z" fill="#1E1E1E"/>
<path d="M128.023 26.288C126.999 26.288 126.159 26.128 125.503 25.808C124.847 25.472 124.359 25.032 124.039 24.488C123.719 23.944 123.559 23.344 123.559 22.688C123.559 21.584 123.991 20.688 124.855 20C125.719 19.312 127.015 18.968 128.743 18.968H131.767V18.68C131.767 17.864 131.535 17.264 131.071 16.88C130.607 16.496 130.031 16.304 129.343 16.304C128.719 16.304 128.175 16.456 127.711 16.76C127.247 17.048 126.959 17.48 126.847 18.056H123.847C123.927 17.192 124.215 16.44 124.711 15.8C125.223 15.16 125.879 14.672 126.679 14.336C127.479 13.984 128.375 13.808 129.367 13.808C131.063 13.808 132.399 14.232 133.375 15.08C134.351 15.928 134.839 17.128 134.839 18.68V26H132.223L131.935 24.08C131.583 24.72 131.087 25.248 130.447 25.664C129.823 26.08 129.015 26.288 128.023 26.288ZM128.719 23.888C129.599 23.888 130.279 23.6 130.759 23.024C131.255 22.448 131.567 21.736 131.695 20.888H129.079C128.263 20.888 127.679 21.04 127.327 21.344C126.975 21.632 126.799 21.992 126.799 22.424C126.799 22.888 126.975 23.248 127.327 23.504C127.679 23.76 128.143 23.888 128.719 23.888Z" fill="#1E1E1E"/>
<defs>
<linearGradient id="paint0_linear_135_173" x1="0" y1="0" x2="41.482" y2="6.0322" gradientUnits="userSpaceOnUse">
<stop stop-color="#593D1B"/>
<stop offset="1" stop-color="#FFD500"/>
</linearGradient>
</defs>
</svg>
